<svg width="35" height="35" viewBox="0 0 35 35" fill="none" xmlns="http://www.w3.org/2000/svg">
  <path
    d="M33.6329 27.0317L28.6337 22.085C27.7517 21.21 26.5746 20.72 25.304 20.72C24.891 20.72 24.4792 20.7783 24.0907 20.8833L22.469 19.2733C23.8807 17.29 24.7032 14.8633 24.7032 12.25C24.7032 5.48333 19.1732 0 12.3516 0C5.53005 0 0 5.48333 0 12.25C0 19.0167 5.53005 24.5 12.3516 24.5C14.8343 24.5 17.1513 23.765 19.081 22.505L20.775 24.185C20.6583 24.57 20.6117 24.9783 20.6117 25.3867C20.6117 26.635 21.0923 27.8133 21.9884 28.6883L26.9747 33.635C27.8579 34.51 29.0467 35 30.3056 35C31.5656 35 32.7404 34.51 33.6353 33.635C35.4553 31.815 35.4553 28.8517 33.6329 27.0317V27.0317ZM2.35435 12.25C2.35435 6.77833 6.83439 2.33333 12.3528 2.33333C17.8711 2.33333 22.3512 6.77833 22.3512 12.25C22.3512 17.7217 17.8688 22.1667 12.3528 22.1667C6.83672 22.1667 2.35435 17.7217 2.35435 12.25V12.25ZM31.9623 31.99C31.0453 32.9 29.5507 32.9 28.6337 31.99L23.6462 27.0317C23.1994 26.6 22.9637 26.0167 22.9637 25.3867C22.9637 24.7567 23.211 24.1733 23.6462 23.7417C24.093 23.2983 24.681 23.0533 25.3052 23.0533C25.9399 23.0533 26.5302 23.2983 26.9759 23.7417L31.9634 28.6883C32.8804 29.5983 32.8804 31.08 31.9634 31.99H31.9623Z"
    fill="#305C70" />
  <path
    d="M12.8335 19.25C12.8335 19.5767 12.5768 19.8333 12.2501 19.8333H12.2384C8.05008 19.8217 4.66672 16.4383 4.66672 12.25C4.66672 8.06166 8.05008 4.67832 12.2384 4.66666H12.2501C12.5768 4.66666 12.8335 4.92332 12.8335 5.24999C12.8335 5.57666 12.5768 5.83332 12.2501 5.83332H12.2384C8.70342 5.84499 5.83339 8.71499 5.83339 12.25C5.83339 15.785 8.70342 18.655 12.2384 18.6667H12.2501C12.5768 18.6667 12.8335 18.9233 12.8335 19.25Z"
    fill="#305C70" />
</svg>